<?xml version="1.0" standalone="no"?>
<!DOCTYPE svg PUBLIC "-//W3C//DTD SVG 20010904//EN"
 "http://www.w3.org/TR/2001/REC-SVG-20010904/DTD/svg10.dtd">
<svg version="1.0" xmlns="http://www.w3.org/2000/svg"
 width="300.000000pt" height="376.000000pt" viewBox="0 0 300.000000 376.000000"
 preserveAspectRatio="xMidYMid meet">
<metadata>
Created by potrace 1.10, written by Peter Selinger 2001-2011
</metadata>
<g transform="translate(0.000000,376.000000) scale(0.100000,-0.100000)"
fill="#000000" stroke="none">
<path d="M1660 3743 c-137 -20 -233 -41 -327 -69 -655 -197 -1157 -748 -1293
-1421 -21 -104 -38 -293 -26 -282 4 4 15 62 26 130 54 353 166 629 359 889 74
100 267 293 369 369 186 140 411 249 629 305 98 26 252 55 328 62 104 10 124
23 35 22 -41 0 -86 -2 -100 -5z"/>
<path d="M1960 3742 c8 -6 74 -17 147 -26 72 -9 142 -20 156 -25 13 -5 40 -12
60 -15 148 -24 556 -207 542 -244 -6 -15 -83 -131 -114 -171 l-18 -24 -134 66
c-253 125 -484 179 -739 172 -333 -9 -605 -94 -873 -274 -103 -68 -277 -229
-356 -326 -164 -204 -297 -504 -327 -738 -3 -23 -9 -66 -13 -95 -11 -72 -6
-287 9 -391 32 -230 117 -453 248 -651 76 -114 79 -118 217 -255 217 -217 468
-356 765 -424 123 -28 150 -31 305 -37 113 -5 166 -2 273 15 129 20 267 55
334 84 18 8 53 23 78 33 25 10 89 42 142 71 54 29 101 53 106 53 13 0 144
-189 137 -199 -8 -15 -153 -97 -246 -140 -128 -60 -323 -122 -462 -146 -17 -4
-74 -13 -126 -20 -52 -8 -97 -17 -100 -21 -11 -12 179 6 282 27 138 28 301 82
425 140 111 52 274 148 270 158 -2 4 -40 61 -86 127 l-84 121 -89 -54 c-154
-93 -310 -154 -499 -194 -90 -20 -134 -23 -310 -23 -174 0 -220 3 -306 22
-561 122 -1006 513 -1183 1040 -61 184 -75 275 -75 502 0 174 3 220 22 306 93
428 331 778 687 1010 169 110 356 186 558 226 147 29 430 32 577 4 171 -31
417 -126 552 -213 15 -9 29 -15 31 -13 46 60 166 244 162 250 -9 14 -156 97
-239 135 -124 56 -270 104 -403 131 -129 26 -330 43 -303 26z"/>
<path d="M1413 2676 c-213 -49 -393 -263 -393 -468 l0 -48 155 0 c128 0 153 2
149 14 -10 26 17 97 52 136 50 55 94 73 169 68 156 -10 231 -153 157 -298 -23
-44 -415 -617 -649 -947 l-44 -63 439 0 439 0 45 68 c25 37 73 107 107 155
l62 88 -251 -3 c-137 -2 -250 0 -250 3 0 4 8 17 18 30 78 101 351 506 373 554
128 271 -11 596 -296 695 -78 27 -202 34 -282 16z m290 -46 c120 -45 232 -157
276 -275 24 -63 32 -112 32 -196 1 -115 -30 -181 -198 -424 -27 -38 -88 -127
-136 -196 -48 -70 -87 -136 -87 -148 0 -35 38 -41 246 -41 156 0 194 -3 194
-13 0 -8 -35 -63 -78 -123 l-77 -109 -403 -3 c-221 -1 -402 0 -402 2 0 5 77
118 255 374 425 611 435 628 435 715 -1 126 -124 226 -260 211 -87 -10 -180
-91 -196 -172 -8 -42 -26 -48 -124 -46 -142 3 -130 -1 -130 44 0 22 9 68 21
102 50 149 160 258 310 307 85 28 235 24 322 -9z"/>
<path d="M2324 2593 c-37 -54 -84 -121 -106 -150 -21 -29 -38 -55 -38 -58 0
-3 61 -5 135 -5 l135 0 0 -655 0 -655 150 0 150 0 0 810 0 810 -180 0 -179 0
-67 -97z m401 -698 c1 -418 -1 -768 -3 -777 -4 -16 -18 -18 -123 -18 -116 0
-119 0 -120 23 -1 12 -2 298 -4 635 -3 568 -4 615 -21 633 -15 16 -31 19 -116
19 -54 0 -98 4 -98 9 0 4 10 23 23 42 48 71 93 135 117 167 l24 32 161 -2 160
-3 0 -760z"/>
<path d="M10 1740 c0 -70 27 -234 60 -355 118 -442 399 -826 795 -1085 236
-154 570 -268 837 -286 93 -7 119 2 37 11 -24 3 -55 8 -69 11 -14 3 -36 8 -50
10 -428 74 -768 244 -1055 529 -130 129 -287 353 -362 515 -72 157 -139 391
-164 570 -14 109 -28 148 -29 80z"/>
<path d="M2869 1201 c-17 -13 -23 -29 -23 -56 0 -46 31 -75 79 -75 38 0 75 37
75 75 0 12 -9 34 -21 49 -25 32 -75 35 -110 7z m100 -17 c12 -15 21 -32 21
-39 0 -23 -41 -65 -64 -65 -37 0 -66 28 -66 62 0 66 69 92 109 42z"/>
<path d="M2891 1148 c1 -24 3 -35 6 -25 6 23 20 22 33 -4 7 -11 14 -18 17 -15
3 3 0 12 -7 21 -9 11 -9 15 -1 15 7 0 11 10 9 23 -2 16 -11 23 -30 25 -27 3
-28 2 -27 -40z"/>
</g>
</svg>
